<?xml version="1.0" encoding="UTF-8" standalone="no"?>
<svg
   xmlns:dc="http://purl.org/dc/elements/1.1/"
   xmlns:cc="http://creativecommons.org/ns#"
   xmlns:rdf="http://www.w3.org/1999/02/22-rdf-syntax-ns#"
   xmlns:svg="http://www.w3.org/2000/svg"
   xmlns="http://www.w3.org/2000/svg"
   xmlns:sodipodi="http://sodipodi.sourceforge.net/DTD/sodipodi-0.dtd"
   xmlns:inkscape="http://www.inkscape.org/namespaces/inkscape"
   id="logo"
   viewBox="90 80.5 1830 345"
   height="95"
   width="265"
   version="1.1"
   inkscape:version="0.91 r13725"
   sodipodi:docname="Darryl-Yeo-Logo-Broken.svg">
  <metadata
     id="metadata4198">
    <rdf:RDF>
      <cc:Work
         rdf:about="">
        <dc:format>image/svg+xml</dc:format>
        <dc:type
           rdf:resource="http://purl.org/dc/dcmitype/StillImage" />
      </cc:Work>
    </rdf:RDF>
  </metadata>
  <defs
     id="defs4196" />
  <sodipodi:namedview
     pagecolor="#ffffff"
     bordercolor="#666666"
     borderopacity="1"
     objecttolerance="10"
     gridtolerance="10"
     guidetolerance="10"
     inkscape:pageopacity="0"
     inkscape:pageshadow="2"
     inkscape:window-width="1440"
     inkscape:window-height="811"
     id="namedview4194"
     showgrid="false"
     inkscape:zoom="2.4148364"
     inkscape:cx="97.361878"
     inkscape:cy="28.926148"
     inkscape:window-x="0"
     inkscape:window-y="0"
     inkscape:window-maximized="0"
     inkscape:current-layer="g4188" />
  <g
     fill-rule="evenodd"
     id="g4188">
    <path
       id="path4225"
       d="m 106.26,100.2 c 34.07,1.18 67.53,14.18 93.68,36.01 16.65,13.93 30.5,31.27 40.04,50.8 15.11,30.2 19.86,65.42 13.45,98.56 -5.98,31.65 -22.1,61.29 -45.42,83.51 -27.15,26.07 -64.06,42.06 -101.75,43.1 0.01,-103.99 0.02,-207.99 0,-311.98 z M 93.74,99.36 c -4.39,-3.12 -3.39,-11.12 2.4,-11.72 51.16,-1.8 102.3,21.98 134.48,61.71 21.25,25.91 34.54,58.27 37.46,91.67 3.35,35.25 -5,71.46 -23.2,101.82 -15.89,26.69 -39.33,48.84 -66.93,63.09 -23.65,12.42 -50.33,18.97 -77.02,19.1 -3.82,0.53 -7.89,-2.92 -7.05,-6.9 0.51,-2.73 -0.06,-5.45 -0.15,-8.17 0.02,-103.53 -0.02,-207.06 0.01,-310.6 z" />
    <path
       id="path4221"
       d="m 367.7,98.67 c 9.88,-5.1 21.75,-6.39 32.38,-2.93 12.87,4.03 23.34,13.33 31.61,23.7 17.32,22.26 26.58,49.67 32.03,77.05 4.77,23.76 5.33,48.07 5.01,72.23 -54.15,0.02 -108.31,0.02 -162.46,0 -0.15,-7.92 0.3,-15.84 0.01,-23.76 0.96,-37.66 7.95,-76.06 26.24,-109.37 8.49,-14.83 19.64,-29.08 35.18,-36.92 z m -9.29,-9.31 c 12.95,-7.62 28.94,-10.43 43.51,-6.18 20.09,5.56 35.58,21.19 46.65,38.23 17.19,26.81 25.96,58.17 30.2,89.49 3.27,23.24 2.44,46.74 2.5,70.14 0,43.32 -0.01,86.64 0.01,129.96 0.16,2.89 -1.02,6.27 -4.03,7.23 -4.04,1.91 -8.87,-1.9 -8.49,-6.24 -0.07,-43.57 0,-87.14 -0.04,-130.71 -54.14,-0.02 -108.29,-0.01 -162.44,-0.01 -0.05,43.6 0.04,87.2 -0.04,130.8 0.31,4.17 -4.24,7.96 -8.21,6.26 -2.76,-0.75 -4.3,-3.61 -4.27,-6.32 -0.11,-54.66 0.08,-109.33 -0.11,-163.98 0.59,-39.1 7.43,-78.88 25.39,-113.93 9.29,-17.69 21.85,-34.52 39.37,-44.74 z" />
    <path
       id="path4217"
       d="m 518.93,100.04 c 36.02,1.32 72.68,9.81 103.06,29.86 14.02,9.45 26.7,21.68 34.11,37.08 5.93,12 7.97,26 5.03,39.11 -3.46,15.97 -13.28,29.9 -25.26,40.72 -12.32,11.13 -26.97,19.41 -42.29,25.67 -23.73,9.53 -49.25,14.13 -74.75,14.95 -0.04,-54.79 -0.01,-109.59 -0.02,-164.38 0.26,-7.67 0.25,-15.34 0.12,-23.01 z m -15.18,-7.99 c 0.72,-3.25 4.17,-4.85 7.27,-4.6 37.45,-0.07 75.55,7.63 108.41,26.09 17.74,10.12 33.99,23.76 44.52,41.47 7.37,12.28 11.54,26.58 11.06,40.95 -0.54,19.06 -9.25,37.16 -21.82,51.22 -15.88,17.89 -37.1,30.22 -59.26,38.69 23.53,39.46 47.23,78.81 70.88,118.2 2,3.36 5.51,7.6 2.99,11.58 -2.2,4.36 -9.04,3.78 -11.03,-0.49 -25.02,-41.73 -50.13,-83.41 -75.06,-125.19 -20.36,6.32 -41.63,9.31 -62.9,10.05 0.01,33.32 0,66.63 0,99.95 -0.05,4.75 0.79,9.62 -0.4,14.29 -0.75,3.57 -5.2,5.46 -8.4,3.92 -2.57,-0.86 -3.66,-3.63 -3.86,-6.11 0.01,-104.32 0.15,-208.66 -0.06,-312.98 -1.68,-1.89 -3.37,-4.42 -2.34,-7.04 z" />
    <path
       id="path4213"
       d="m 706.24,100.06 c 36.21,1.25 73.12,9.83 103.6,30.08 14.56,9.87 27.65,22.82 34.81,39.11 5.55,12.42 6.96,26.71 3.25,39.85 -5.28,19.3 -19.29,34.99 -35.33,46.36 -30.85,21.66 -68.95,30.56 -106.17,32.05 -0.33,-62.48 0,-124.97 -0.16,-187.45 z m -15.22,-7.17 c 0.41,-3.33 3.68,-5.69 6.96,-5.42 36.55,-0.19 73.69,7.1 106.07,24.49 15.92,8.65 30.69,19.96 41.66,34.5 9.31,12.3 15.71,27.11 16.66,42.62 1.44,19.06 -5.73,37.99 -17.36,52.89 -16.01,20.67 -39.2,34.33 -63.14,43.9 0.49,2.01 1.74,3.71 2.78,5.48 22.88,38.12 45.72,76.27 68.65,114.37 2,2.9 4.32,7.08 1.72,10.34 -2.42,3.81 -8.44,3.3 -10.52,-0.59 -20.2,-33.47 -40.25,-67.05 -60.39,-100.56 -5.1,-8.24 -9.76,-16.78 -15.12,-24.82 -20.35,6.18 -41.55,9.18 -62.77,9.99 0.09,37.31 0.06,74.63 0.02,111.94 0.33,4.2 -4.25,8.03 -8.24,6.3 -3.16,-0.85 -4.47,-4.33 -4.28,-7.31 0.02,-103.93 -0.01,-207.85 0.03,-311.77 -1.53,-1.76 -3.28,-3.82 -2.73,-6.35 z" />
    <path
       d="m 857.35,103.66 c -2.6,-3.73 -0.08,-9.75 4.64,-9.77 3.39,-0.61 5.79,2.42 7.22,5.06 21.81,38.41 43.8,76.71 65.69,115.08 9.27,16.05 18.24,32.28 27.71,48.22 31.23,-54.96 62.73,-109.76 94.01,-164.68 1.36,-2.14 3.62,-4.21 6.38,-3.68 4.68,0 7.24,5.98 4.68,9.71 -31.87,55.81 -63.77,111.61 -95.66,167.41 -1.37,2.53 -3.41,4.95 -3.19,8.01 -0.04,41.98 -0.01,83.97 -0.02,125.95 -0.1,3.81 0.86,8.08 -1.42,11.45 -2.68,3.58 -9.21,2.8 -10.6,-1.56 -1.54,-4.81 -0.52,-9.93 -0.6,-14.87 -0.01,-39.66 0.01,-79.31 -0.01,-118.97 -0.15,-2.07 0.11,-4.32 -0.99,-6.17 C 922.55,217.8 889.96,160.72 857.35,103.66 Z"
       id="path4211" />
    <path
       d="m 1093.74,101.01 c -0.61,-4.4 3.8,-8.46 8.11,-6.92 3.5,0.81 4.68,4.7 4.44,7.89 -0.07,101.31 0.05,202.62 -0.06,303.93 24.23,0.63 48.5,0.1 72.74,0.28 20.98,-0.01 41.97,0 62.95,0 3.84,0.04 8.06,-0.9 11.56,1.2 3.28,2.06 3.58,7.18 0.69,9.72 -2.84,2.38 -6.75,1.61 -10.13,1.71 -48.34,0 -96.69,-0.04 -145.01,0.03 -2.82,-0.59 -5.33,-2.95 -5.31,-5.97 0.03,-103.95 -0.01,-207.91 0.02,-311.87 z"
       id="path4190" />
    <path
       d="m 1218.17,88.22 c 8.46,-3.51 18.89,-1.14 25.19,5.47 3.17,3.34 5.12,7.56 7.44,11.49 23.09,40.31 46.02,80.72 69.2,120.98 24.53,-42.6 48.75,-85.36 73.24,-127.98 3.97,-6.98 11.73,-11.45 19.75,-11.58 8.33,-0.21 16.52,4.56 20.65,11.76 4.05,7.08 4.03,16.18 -0.05,23.24 -26.29,46.03 -52.6,92.04 -78.89,138.06 -3.63,6.63 -7.77,13.01 -11.08,19.8 -0.69,7.13 -0.08,14.36 -0.28,21.53 0,32.01 -0.02,64.03 0.01,96.04 0.04,4.58 0.15,9.34 -1.72,13.62 -3.54,8.51 -12.39,14.65 -21.7,14.37 -9.54,0.24 -18.54,-6.27 -21.86,-15.11 -1.72,-4.42 -1.42,-9.24 -1.41,-13.89 0.02,-36.65 -0.02,-73.3 0.02,-109.95 -0.09,-2.9 0.46,-6.07 -1.22,-8.64 -29.57,-51.72 -59.12,-103.47 -88.7,-155.19 -3.22,-5.46 -4.42,-12.2 -2.62,-18.34 1.72,-7.14 7.26,-13 14.03,-15.68 z"
       id="path4206" />
    <path
       d="m 1460,108 c 0.38,-11.02 10.18,-20.7 21.11,-21.42 44.28,0.17 88.59,0.04 132.87,0.08 5.24,0.14 10.58,-0.51 15.72,0.81 10.11,2.78 17.74,12.99 16.96,23.56 -0.14,12.58 -12.11,23.37 -24.64,22.33 -33.68,-0.04 -67.36,-0.01 -101.03,-0.02 -4.81,0.09 -9.62,-0.24 -14.41,0.21 0.17,30.96 0.17,61.94 0,92.9 27.78,0.49 55.58,0.07 83.37,0.21 6.25,0.17 12.8,-0.74 18.77,1.68 7.72,2.99 13.48,10.43 14.4,18.68 1.19,8.49 -2.75,17.46 -9.89,22.24 -4.14,2.91 -9.25,4.15 -14.26,4.09 -29.64,-0.02 -59.29,0 -88.93,-0.01 -1.18,0.04 -2.33,0.11 -3.47,0.22 0.27,34.91 0.02,69.83 0.13,104.74 36.78,0.03 73.57,0.01 110.36,0.01 4.54,0.05 9.23,-0.35 13.62,1.12 6.69,2.21 12.24,7.62 14.67,14.25 2.58,7.36 1.45,16.09 -3.48,22.23 -4.22,5.47 -10.89,9.09 -17.85,9.08 -47,0.04 -94.01,-0.04 -141.01,0.04 -11.86,0.55 -23,-10.16 -23.03,-22 0.04,-98.34 0.01,-196.69 0.02,-295.03 z"
       id="path4204" />
    <path
       id="path4192"
       d="m 1777.28,128.33 c 18.6,-3.39 38.04,3.97 51.6,16.74 11.45,10.86 19.81,24.58 26.32,38.86 9.43,21 13.21,44.19 13.05,67.11 -0.04,23.76 -4.5,47.77 -14.99,69.21 -6.79,13.71 -15.28,26.94 -26.97,36.98 -14.49,12.37 -35.02,18.7 -53.68,13.37 -13.9,-3.51 -26.14,-12.08 -35.18,-23.07 -12.68,-15.37 -21.69,-33.66 -26.88,-52.87 -5.77,-22.04 -6.74,-45.18 -4.14,-67.76 2.43,-19.89 8.57,-39.41 18.76,-56.72 7.48,-12.92 16.95,-25.23 29.79,-33.21 6.8,-4.27 14.45,-7.11 22.32,-8.64 z m -0.09,-47 c 19.04,-1.81 38.64,1.85 55.53,10.88 28.41,14.93 50.55,40.41 63.56,69.55 17.72,39.77 23.1,84.97 15.05,127.77 -5.91,31.35 -17.92,62.35 -39.11,86.6 -12.28,14.12 -27.24,26.08 -44.24,33.99 -19.53,9.12 -42.09,11.24 -63.09,6.62 -14.29,-3.09 -27.57,-9.82 -39.42,-18.27 -16.15,-11.69 -29.79,-26.78 -39.96,-43.92 -18.32,-31.53 -26.89,-68.21 -27.21,-104.52 0.33,-37.25 9.3,-74.95 28.67,-106.99 10.9,-17.55 25.44,-32.91 42.66,-44.37 14.15,-9.5 30.52,-15.87 47.56,-17.34 z" />
  </g>
</svg>
