<?xml version="1.0" encoding="UTF-8" standalone="no"?>
<svg
   xmlns:dc="http://purl.org/dc/elements/1.1/"
   xmlns:cc="http://creativecommons.org/ns#"
   xmlns:rdf="http://www.w3.org/1999/02/22-rdf-syntax-ns#"
   xmlns:svg="http://www.w3.org/2000/svg"
   xmlns="http://www.w3.org/2000/svg"
   xmlns:sodipodi="http://sodipodi.sourceforge.net/DTD/sodipodi-0.dtd"
   xmlns:inkscape="http://www.inkscape.org/namespaces/inkscape"
   id="logo"
   viewBox="90 80.5 1830 345"
   height="95"
   width="265"
   version="1.1"
   inkscape:version="0.91 r13725"
   sodipodi:docname="D.svg">
  <metadata
     id="metadata4198">
    <rdf:RDF>
      <cc:Work
         rdf:about="">
        <dc:format>image/svg+xml</dc:format>
        <dc:type
           rdf:resource="http://purl.org/dc/dcmitype/StillImage" />
        <dc:title></dc:title>
      </cc:Work>
    </rdf:RDF>
  </metadata>
  <defs
     id="defs4196" />
  <sodipodi:namedview
     pagecolor="#ffffff"
     bordercolor="#666666"
     borderopacity="1"
     objecttolerance="10"
     gridtolerance="10"
     guidetolerance="10"
     inkscape:pageopacity="0"
     inkscape:pageshadow="2"
     inkscape:window-width="1440"
     inkscape:window-height="811"
     id="namedview4194"
     showgrid="false"
     inkscape:zoom="2.4148364"
     inkscape:cx="97.361878"
     inkscape:cy="28.926148"
     inkscape:window-x="0"
     inkscape:window-y="0"
     inkscape:window-maximized="0"
     inkscape:current-layer="g4188" />
  <g
     fill-rule="evenodd"
     id="g4188">
    <path
       id="path4225"
       d="m 106.26,100.2 c 34.07,1.18 67.53,14.18 93.68,36.01 16.65,13.93 30.5,31.27 40.04,50.8 15.11,30.2 19.86,65.42 13.45,98.56 -5.98,31.65 -22.1,61.29 -45.42,83.51 -27.15,26.07 -64.06,42.06 -101.75,43.1 0.01,-103.99 0.02,-207.99 0,-311.98 z M 93.74,99.36 c -4.39,-3.12 -3.39,-11.12 2.4,-11.72 51.16,-1.8 102.3,21.98 134.48,61.71 21.25,25.91 34.54,58.27 37.46,91.67 3.35,35.25 -5,71.46 -23.2,101.82 -15.89,26.69 -39.33,48.84 -66.93,63.09 -23.65,12.42 -50.33,18.97 -77.02,19.1 -3.82,0.53 -7.89,-2.92 -7.05,-6.9 0.51,-2.73 -0.06,-5.45 -0.15,-8.17 0.02,-103.53 -0.02,-207.06 0.01,-310.6 z" />
  </g>
</svg>
