<?xml version="1.0" encoding="UTF-8" standalone="no"?>
<svg
   xmlns:dc="http://purl.org/dc/elements/1.1/"
   xmlns:cc="http://creativecommons.org/ns#"
   xmlns:rdf="http://www.w3.org/1999/02/22-rdf-syntax-ns#"
   xmlns:svg="http://www.w3.org/2000/svg"
   xmlns="http://www.w3.org/2000/svg"
   xmlns:sodipodi="http://sodipodi.sourceforge.net/DTD/sodipodi-0.dtd"
   xmlns:inkscape="http://www.inkscape.org/namespaces/inkscape"
   id="logo"
   viewBox="90 80.5 1830 345"
   height="95"
   width="265"
   version="1.1"
   inkscape:version="0.91 r13725"
   sodipodi:docname="e.svg">
  <metadata
     id="metadata4198">
    <rdf:RDF>
      <cc:Work
         rdf:about="">
        <dc:format>image/svg+xml</dc:format>
        <dc:type
           rdf:resource="http://purl.org/dc/dcmitype/StillImage" />
        <dc:title></dc:title>
      </cc:Work>
    </rdf:RDF>
  </metadata>
  <defs
     id="defs4196" />
  <sodipodi:namedview
     pagecolor="#ffffff"
     bordercolor="#666666"
     borderopacity="1"
     objecttolerance="10"
     gridtolerance="10"
     guidetolerance="10"
     inkscape:pageopacity="0"
     inkscape:pageshadow="2"
     inkscape:window-width="1440"
     inkscape:window-height="811"
     id="namedview4194"
     showgrid="false"
     inkscape:zoom="2.4148364"
     inkscape:cx="101.90213"
     inkscape:cy="28.926148"
     inkscape:window-x="-2"
     inkscape:window-y="59"
     inkscape:window-maximized="0"
     inkscape:current-layer="g4188" />
  <g
     fill-rule="evenodd"
     id="g4188">
    <path
       d="m 1460,108 c 0.38,-11.02 10.18,-20.7 21.11,-21.42 44.28,0.17 88.59,0.04 132.87,0.08 5.24,0.14 10.58,-0.51 15.72,0.81 10.11,2.78 17.74,12.99 16.96,23.56 -0.14,12.58 -12.11,23.37 -24.64,22.33 -33.68,-0.04 -67.36,-0.01 -101.03,-0.02 -4.81,0.09 -9.62,-0.24 -14.41,0.21 0.17,30.96 0.17,61.94 0,92.9 27.78,0.49 55.58,0.07 83.37,0.21 6.25,0.17 12.8,-0.74 18.77,1.68 7.72,2.99 13.48,10.43 14.4,18.68 1.19,8.49 -2.75,17.46 -9.89,22.24 -4.14,2.91 -9.25,4.15 -14.26,4.09 -29.64,-0.02 -59.29,0 -88.93,-0.01 -1.18,0.04 -2.33,0.11 -3.47,0.22 0.27,34.91 0.02,69.83 0.13,104.74 36.78,0.03 73.57,0.01 110.36,0.01 4.54,0.05 9.23,-0.35 13.62,1.12 6.69,2.21 12.24,7.62 14.67,14.25 2.58,7.36 1.45,16.09 -3.48,22.23 -4.22,5.47 -10.89,9.09 -17.85,9.08 -47,0.04 -94.01,-0.04 -141.01,0.04 -11.86,0.55 -23,-10.16 -23.03,-22 0.04,-98.34 0.01,-196.69 0.02,-295.03 z"
       id="path4204" />
  </g>
</svg>
