<?xml version="1.0" encoding="UTF-8" standalone="no"?>
<svg
   xmlns:dc="http://purl.org/dc/elements/1.1/"
   xmlns:cc="http://creativecommons.org/ns#"
   xmlns:rdf="http://www.w3.org/1999/02/22-rdf-syntax-ns#"
   xmlns:svg="http://www.w3.org/2000/svg"
   xmlns="http://www.w3.org/2000/svg"
   xmlns:sodipodi="http://sodipodi.sourceforge.net/DTD/sodipodi-0.dtd"
   xmlns:inkscape="http://www.inkscape.org/namespaces/inkscape"
   id="logo"
   viewBox="90 80.5 1830 345"
   height="95"
   width="265"
   version="1.1"
   inkscape:version="0.91 r13725"
   sodipodi:docname="o.svg">
  <metadata
     id="metadata4198">
    <rdf:RDF>
      <cc:Work
         rdf:about="">
        <dc:format>image/svg+xml</dc:format>
        <dc:type
           rdf:resource="http://purl.org/dc/dcmitype/StillImage" />
        <dc:title></dc:title>
      </cc:Work>
    </rdf:RDF>
  </metadata>
  <defs
     id="defs4196" />
  <sodipodi:namedview
     pagecolor="#ffffff"
     bordercolor="#666666"
     borderopacity="1"
     objecttolerance="10"
     gridtolerance="10"
     guidetolerance="10"
     inkscape:pageopacity="0"
     inkscape:pageshadow="2"
     inkscape:window-width="1440"
     inkscape:window-height="811"
     id="namedview4194"
     showgrid="false"
     inkscape:zoom="2.4148364"
     inkscape:cx="101.90213"
     inkscape:cy="28.926148"
     inkscape:window-x="-2"
     inkscape:window-y="59"
     inkscape:window-maximized="0"
     inkscape:current-layer="g4188" />
  <g
     fill-rule="evenodd"
     id="g4188">
    <path
       id="path4192"
       d="m 1777.28,128.33 c 18.6,-3.39 38.04,3.97 51.6,16.74 11.45,10.86 19.81,24.58 26.32,38.86 9.43,21 13.21,44.19 13.05,67.11 -0.04,23.76 -4.5,47.77 -14.99,69.21 -6.79,13.71 -15.28,26.94 -26.97,36.98 -14.49,12.37 -35.02,18.7 -53.68,13.37 -13.9,-3.51 -26.14,-12.08 -35.18,-23.07 -12.68,-15.37 -21.69,-33.66 -26.88,-52.87 -5.77,-22.04 -6.74,-45.18 -4.14,-67.76 2.43,-19.89 8.57,-39.41 18.76,-56.72 7.48,-12.92 16.95,-25.23 29.79,-33.21 6.8,-4.27 14.45,-7.11 22.32,-8.64 z m -0.09,-47 c 19.04,-1.81 38.64,1.85 55.53,10.88 28.41,14.93 50.55,40.41 63.56,69.55 17.72,39.77 23.1,84.97 15.05,127.77 -5.91,31.35 -17.92,62.35 -39.11,86.6 -12.28,14.12 -27.24,26.08 -44.24,33.99 -19.53,9.12 -42.09,11.24 -63.09,6.62 -14.29,-3.09 -27.57,-9.82 -39.42,-18.27 -16.15,-11.69 -29.79,-26.78 -39.96,-43.92 -18.32,-31.53 -26.89,-68.21 -27.21,-104.52 0.33,-37.25 9.3,-74.95 28.67,-106.99 10.9,-17.55 25.44,-32.91 42.66,-44.37 14.15,-9.5 30.52,-15.87 47.56,-17.34 z" />
  </g>
</svg>
