<?xml version="1.0" encoding="UTF-8" standalone="no"?>
<svg
   xmlns:dc="http://purl.org/dc/elements/1.1/"
   xmlns:cc="http://creativecommons.org/ns#"
   xmlns:rdf="http://www.w3.org/1999/02/22-rdf-syntax-ns#"
   xmlns:svg="http://www.w3.org/2000/svg"
   xmlns="http://www.w3.org/2000/svg"
   xmlns:sodipodi="http://sodipodi.sourceforge.net/DTD/sodipodi-0.dtd"
   xmlns:inkscape="http://www.inkscape.org/namespaces/inkscape"
   id="logo"
   viewBox="90 80.5 1830 345"
   height="95"
   width="265"
   version="1.1"
   inkscape:version="0.91 r13725"
   sodipodi:docname="Darryl-Yeo-Logo-Broken.svg">
  <metadata
     id="metadata4198">
    <rdf:RDF>
      <cc:Work
         rdf:about="">
        <dc:format>image/svg+xml</dc:format>
        <dc:type
           rdf:resource="http://purl.org/dc/dcmitype/StillImage" />
        <dc:title></dc:title>
      </cc:Work>
    </rdf:RDF>
  </metadata>
  <defs
     id="defs4196" />
  <sodipodi:namedview
     pagecolor="#ffffff"
     bordercolor="#666666"
     borderopacity="1"
     objecttolerance="10"
     gridtolerance="10"
     guidetolerance="10"
     inkscape:pageopacity="0"
     inkscape:pageshadow="2"
     inkscape:window-width="1440"
     inkscape:window-height="811"
     id="namedview4194"
     showgrid="false"
     inkscape:zoom="2.4148364"
     inkscape:cx="89.325962"
     inkscape:cy="28.926148"
     inkscape:window-x="-2"
     inkscape:window-y="59"
     inkscape:window-maximized="0"
     inkscape:current-layer="g4188" />
  <g
     fill-rule="evenodd"
     id="g4188">
    <path
       id="path4217"
       d="m 518.93,100.04 c 36.02,1.32 72.68,9.81 103.06,29.86 14.02,9.45 26.7,21.68 34.11,37.08 5.93,12 7.97,26 5.03,39.11 -3.46,15.97 -13.28,29.9 -25.26,40.72 -12.32,11.13 -26.97,19.41 -42.29,25.67 -23.73,9.53 -49.25,14.13 -74.75,14.95 -0.04,-54.79 -0.01,-109.59 -0.02,-164.38 0.26,-7.67 0.25,-15.34 0.12,-23.01 z m -15.18,-7.99 c 0.72,-3.25 4.17,-4.85 7.27,-4.6 37.45,-0.07 75.55,7.63 108.41,26.09 17.74,10.12 33.99,23.76 44.52,41.47 7.37,12.28 11.54,26.58 11.06,40.95 -0.54,19.06 -9.25,37.16 -21.82,51.22 -15.88,17.89 -37.1,30.22 -59.26,38.69 23.53,39.46 47.23,78.81 70.88,118.2 2,3.36 5.51,7.6 2.99,11.58 -2.2,4.36 -9.04,3.78 -11.03,-0.49 -25.02,-41.73 -50.13,-83.41 -75.06,-125.19 -20.36,6.32 -41.63,9.31 -62.9,10.05 0.01,33.32 0,66.63 0,99.95 -0.05,4.75 0.79,9.62 -0.4,14.29 -0.75,3.57 -5.2,5.46 -8.4,3.92 -2.57,-0.86 -3.66,-3.63 -3.86,-6.11 0.01,-104.32 0.15,-208.66 -0.06,-312.98 -1.68,-1.89 -3.37,-4.42 -2.34,-7.04 z" />
  </g>
</svg>
