<?xml version="1.0" encoding="UTF-8" standalone="no"?>
<svg
   xmlns:dc="http://purl.org/dc/elements/1.1/"
   xmlns:cc="http://creativecommons.org/ns#"
   xmlns:rdf="http://www.w3.org/1999/02/22-rdf-syntax-ns#"
   xmlns:svg="http://www.w3.org/2000/svg"
   xmlns="http://www.w3.org/2000/svg"
   xmlns:sodipodi="http://sodipodi.sourceforge.net/DTD/sodipodi-0.dtd"
   xmlns:inkscape="http://www.inkscape.org/namespaces/inkscape"
   id="logo"
   viewBox="90 80.5 1830 345"
   height="95"
   width="265"
   version="1.1"
   inkscape:version="0.91 r13725"
   sodipodi:docname="Y .svg">
  <metadata
     id="metadata4198">
    <rdf:RDF>
      <cc:Work
         rdf:about="">
        <dc:format>image/svg+xml</dc:format>
        <dc:type
           rdf:resource="http://purl.org/dc/dcmitype/StillImage" />
        <dc:title></dc:title>
      </cc:Work>
    </rdf:RDF>
  </metadata>
  <defs
     id="defs4196" />
  <sodipodi:namedview
     pagecolor="#ffffff"
     bordercolor="#666666"
     borderopacity="1"
     objecttolerance="10"
     gridtolerance="10"
     guidetolerance="10"
     inkscape:pageopacity="0"
     inkscape:pageshadow="2"
     inkscape:window-width="1440"
     inkscape:window-height="811"
     id="namedview4194"
     showgrid="false"
     inkscape:zoom="2.4148364"
     inkscape:cx="89.325962"
     inkscape:cy="28.926148"
     inkscape:window-x="-2"
     inkscape:window-y="59"
     inkscape:window-maximized="0"
     inkscape:current-layer="g4188" />
  <g
     fill-rule="evenodd"
     id="g4188">
    <path
       d="m 1218.17,88.22 c 8.46,-3.51 18.89,-1.14 25.19,5.47 3.17,3.34 5.12,7.56 7.44,11.49 23.09,40.31 46.02,80.72 69.2,120.98 24.53,-42.6 48.75,-85.36 73.24,-127.98 3.97,-6.98 11.73,-11.45 19.75,-11.58 8.33,-0.21 16.52,4.56 20.65,11.76 4.05,7.08 4.03,16.18 -0.05,23.24 -26.29,46.03 -52.6,92.04 -78.89,138.06 -3.63,6.63 -7.77,13.01 -11.08,19.8 -0.69,7.13 -0.08,14.36 -0.28,21.53 0,32.01 -0.02,64.03 0.01,96.04 0.04,4.58 0.15,9.34 -1.72,13.62 -3.54,8.51 -12.39,14.65 -21.7,14.37 -9.54,0.24 -18.54,-6.27 -21.86,-15.11 -1.72,-4.42 -1.42,-9.24 -1.41,-13.89 0.02,-36.65 -0.02,-73.3 0.02,-109.95 -0.09,-2.9 0.46,-6.07 -1.22,-8.64 -29.57,-51.72 -59.12,-103.47 -88.7,-155.19 -3.22,-5.46 -4.42,-12.2 -2.62,-18.34 1.72,-7.14 7.26,-13 14.03,-15.68 z"
       id="path4206" />
  </g>
</svg>
