<?xml version="1.0" encoding="UTF-8" standalone="no"?>
<svg
   xmlns:dc="http://purl.org/dc/elements/1.1/"
   xmlns:cc="http://creativecommons.org/ns#"
   xmlns:rdf="http://www.w3.org/1999/02/22-rdf-syntax-ns#"
   xmlns:svg="http://www.w3.org/2000/svg"
   xmlns="http://www.w3.org/2000/svg"
   xmlns:sodipodi="http://sodipodi.sourceforge.net/DTD/sodipodi-0.dtd"
   xmlns:inkscape="http://www.inkscape.org/namespaces/inkscape"
   id="logo"
   viewBox="90 80.5 1830 345"
   height="95"
   width="265"
   version="1.1"
   inkscape:version="0.91 r13725"
   sodipodi:docname="Darryl-Yeo-Logo-Broken.svg">
  <metadata
     id="metadata4198">
    <rdf:RDF>
      <cc:Work
         rdf:about="">
        <dc:format>image/svg+xml</dc:format>
        <dc:type
           rdf:resource="http://purl.org/dc/dcmitype/StillImage" />
        <dc:title></dc:title>
      </cc:Work>
    </rdf:RDF>
  </metadata>
  <defs
     id="defs4196" />
  <sodipodi:namedview
     pagecolor="#ffffff"
     bordercolor="#666666"
     borderopacity="1"
     objecttolerance="10"
     gridtolerance="10"
     guidetolerance="10"
     inkscape:pageopacity="0"
     inkscape:pageshadow="2"
     inkscape:window-width="1440"
     inkscape:window-height="811"
     id="namedview4194"
     showgrid="false"
     inkscape:zoom="2.4148364"
     inkscape:cx="89.325962"
     inkscape:cy="28.926148"
     inkscape:window-x="-2"
     inkscape:window-y="59"
     inkscape:window-maximized="0"
     inkscape:current-layer="g4188" />
  <g
     fill-rule="evenodd"
     id="g4188">
    <path
       d="m 857.35,103.66 c -2.6,-3.73 -0.08,-9.75 4.64,-9.77 3.39,-0.61 5.79,2.42 7.22,5.06 21.81,38.41 43.8,76.71 65.69,115.08 9.27,16.05 18.24,32.28 27.71,48.22 31.23,-54.96 62.73,-109.76 94.01,-164.68 1.36,-2.14 3.62,-4.21 6.38,-3.68 4.68,0 7.24,5.98 4.68,9.71 -31.87,55.81 -63.77,111.61 -95.66,167.41 -1.37,2.53 -3.41,4.95 -3.19,8.01 -0.04,41.98 -0.01,83.97 -0.02,125.95 -0.1,3.81 0.86,8.08 -1.42,11.45 -2.68,3.58 -9.21,2.8 -10.6,-1.56 -1.54,-4.81 -0.52,-9.93 -0.6,-14.87 -0.01,-39.66 0.01,-79.31 -0.01,-118.97 -0.15,-2.07 0.11,-4.32 -0.99,-6.17 C 922.55,217.8 889.96,160.72 857.35,103.66 Z"
       id="path4211" />
  </g>
</svg>
